solid OpenSCAD_Model
  facet normal -1 0 0
    outer loop
      vertex 1 1 23
      vertex 1 58.4 24.4
      vertex 1 58.4 23
    endloop
  endfacet
  facet normal -1 -0 0
    outer loop
      vertex 1 58.4 24.4
      vertex 1 1 23
      vertex 1 1 24.4
    endloop
  endfacet
  facet normal 0 0 1
    outer loop
      vertex 3.96353 4.92658 24.4
      vertex 42.1162 21.9573 24.4
      vertex 3.96353 55.0734 24.4
    endloop
  endfacet
  facet normal 0 0 1
    outer loop
      vertex 42.1162 21.9573 24.4
      vertex 3.96353 4.92658 24.4
      vertex 5 3.5 24.4
    endloop
  endfacet
  facet normal 0 0 1
    outer loop
      vertex 2.28647 55.6183 24.4
      vertex 3.96353 4.92658 24.4
      vertex 3.96353 55.0734 24.4
    endloop
  endfacet
  facet normal 0 0 1
    outer loop
      vertex 3.96353 4.92658 24.4
      vertex 2.28647 55.6183 24.4
      vertex 2.28647 4.38168 24.4
    endloop
  endfacet
  facet normal -0 0 1
    outer loop
      vertex 56.9635 55.0734 24.4
      vertex 58 3.5 24.4
      vertex 58 56.5 24.4
    endloop
  endfacet
  facet normal 0 0 1
    outer loop
      vertex 56.9635 55.0734 24.4
      vertex 56.9635 4.92658 24.4
      vertex 58 3.5 24.4
    endloop
  endfacet
  facet normal 0 0 1
    outer loop
      vertex 46.4821 24.9708 24.4
      vertex 56.9635 55.0734 24.4
      vertex 55.2865 55.6183 24.4
    endloop
  endfacet
  facet normal 0 0 1
    outer loop
      vertex 56.9635 55.0734 24.4
      vertex 50 21 24.4
      vertex 56.9635 4.92658 24.4
    endloop
  endfacet
  facet normal 0 0 1
    outer loop
      vertex 58 3.5 24.4
      vertex 58.4 58.4 24.4
      vertex 58 56.5 24.4
    endloop
  endfacet
  facet normal 0 0 1
    outer loop
      vertex 58.4 58.4 24.4
      vertex 56.9635 57.9266 24.4
      vertex 58 56.5 24.4
    endloop
  endfacet
  facet normal 0 0 1
    outer loop
      vertex 3.96353 57.9266 24.4
      vertex 56.9635 57.9266 24.4
      vertex 58.4 58.4 24.4
    endloop
  endfacet
  facet normal -0 0 1
    outer loop
      vertex 5 56.5 24.4
      vertex 55.2865 55.6183 24.4
      vertex 55.2865 57.3817 24.4
    endloop
  endfacet
  facet normal -0 0 1
    outer loop
      vertex 49.5418 19.1411 24.4
      vertex 56.9635 4.92658 24.4
      vertex 50 21 24.4
    endloop
  endfacet
  facet normal -0 0 1
    outer loop
      vertex 48.2723 17.7081 24.4
      vertex 56.9635 4.92658 24.4
      vertex 49.5418 19.1411 24.4
    endloop
  endfacet
  facet normal 0 0 1
    outer loop
      vertex 56.9635 55.0734 24.4
      vertex 49.5418 22.8589 24.4
      vertex 50 21 24.4
    endloop
  endfacet
  facet normal 0 0 1
    outer loop
      vertex 56.9635 55.0734 24.4
      vertex 48.2723 24.2919 24.4
      vertex 49.5418 22.8589 24.4
    endloop
  endfacet
  facet normal 0 0 1
    outer loop
      vertex 56.9635 55.0734 24.4
      vertex 46.4821 24.9708 24.4
      vertex 48.2723 24.2919 24.4
    endloop
  endfacet
  facet normal 0 0 1
    outer loop
      vertex 55.2865 55.6183 24.4
      vertex 44.5816 24.7401 24.4
      vertex 46.4821 24.9708 24.4
    endloop
  endfacet
  facet normal 0 0 1
    outer loop
      vertex 55.2865 55.6183 24.4
      vertex 5 56.5 24.4
      vertex 44.5816 24.7401 24.4
    endloop
  endfacet
  facet normal 0 0 1
    outer loop
      vertex 44.5816 24.7401 24.4
      vertex 5 56.5 24.4
      vertex 43.006 23.6525 24.4
    endloop
  endfacet
  facet normal 0 0 1
    outer loop
      vertex 43.006 23.6525 24.4
      vertex 3.96353 55.0734 24.4
      vertex 42.1162 21.9573 24.4
    endloop
  endfacet
  facet normal -0 0 1
    outer loop
      vertex 3.96353 55.0734 24.4
      vertex 43.006 23.6525 24.4
      vertex 5 56.5 24.4
    endloop
  endfacet
  facet normal 0 0 1
    outer loop
      vertex 56.9635 57.9266 24.4
      vertex 3.96353 57.9266 24.4
      vertex 55.2865 57.3817 24.4
    endloop
  endfacet
  facet normal 0 0 1
    outer loop
      vertex 55.2865 57.3817 24.4
      vertex 3.96353 57.9266 24.4
      vertex 5 56.5 24.4
    endloop
  endfacet
  facet normal 0 0 1
    outer loop
      vertex 1 58.4 24.4
      vertex 2.28647 55.6183 24.4
      vertex 2.28647 57.3817 24.4
    endloop
  endfacet
  facet normal 0 0 1
    outer loop
      vertex 2.28647 55.6183 24.4
      vertex 1 58.4 24.4
      vertex 2.28647 4.38168 24.4
    endloop
  endfacet
  facet normal 0 0 1
    outer loop
      vertex 1 1 24.4
      vertex 2.28647 4.38168 24.4
      vertex 1 58.4 24.4
    endloop
  endfacet
  facet normal 0 0 1
    outer loop
      vertex 3.96353 57.9266 24.4
      vertex 1 58.4 24.4
      vertex 2.28647 57.3817 24.4
    endloop
  endfacet
  facet normal -0 0 1
    outer loop
      vertex 1 58.4 24.4
      vertex 3.96353 57.9266 24.4
      vertex 58.4 58.4 24.4
    endloop
  endfacet
  facet normal 0 0 1
    outer loop
      vertex 58.4 58.4 24.4
      vertex 58 3.5 24.4
      vertex 58.4 1 24.4
    endloop
  endfacet
  facet normal -0 0 1
    outer loop
      vertex 56.9635 2.07342 24.4
      vertex 58.4 1 24.4
      vertex 58 3.5 24.4
    endloop
  endfacet
  facet normal 0 0 1
    outer loop
      vertex 55.2865 2.61832 24.4
      vertex 58.4 1 24.4
      vertex 56.9635 2.07342 24.4
    endloop
  endfacet
  facet normal 0 0 1
    outer loop
      vertex 56.9635 4.92658 24.4
      vertex 48.2723 17.7081 24.4
      vertex 55.2865 4.38168 24.4
    endloop
  endfacet
  facet normal -0 0 1
    outer loop
      vertex 46.4821 17.0292 24.4
      vertex 55.2865 4.38168 24.4
      vertex 48.2723 17.7081 24.4
    endloop
  endfacet
  facet normal 0 0 1
    outer loop
      vertex 44.5816 17.2599 24.4
      vertex 55.2865 4.38168 24.4
      vertex 46.4821 17.0292 24.4
    endloop
  endfacet
  facet normal 0 0 1
    outer loop
      vertex 55.2865 4.38168 24.4
      vertex 44.5816 17.2599 24.4
      vertex 55.2865 2.61832 24.4
    endloop
  endfacet
  facet normal 0 0 1
    outer loop
      vertex 5 3.5 24.4
      vertex 44.5816 17.2599 24.4
      vertex 43.006 18.3475 24.4
    endloop
  endfacet
  facet normal 0 0 1
    outer loop
      vertex 42.1162 21.9573 24.4
      vertex 5 3.5 24.4
      vertex 42.1162 20.0427 24.4
    endloop
  endfacet
  facet normal 0 0 1
    outer loop
      vertex 42.1162 20.0427 24.4
      vertex 5 3.5 24.4
      vertex 43.006 18.3475 24.4
    endloop
  endfacet
  facet normal 0 0 1
    outer loop
      vertex 44.5816 17.2599 24.4
      vertex 5 3.5 24.4
      vertex 55.2865 2.61832 24.4
    endloop
  endfacet
  facet normal 0 0 1
    outer loop
      vertex 3.96353 2.07342 24.4
      vertex 55.2865 2.61832 24.4
      vertex 5 3.5 24.4
    endloop
  endfacet
  facet normal 0 0 1
    outer loop
      vertex 55.2865 2.61832 24.4
      vertex 3.96353 2.07342 24.4
      vertex 58.4 1 24.4
    endloop
  endfacet
  facet normal 0 0 1
    outer loop
      vertex 3.96353 2.07342 24.4
      vertex 1 1 24.4
      vertex 58.4 1 24.4
    endloop
  endfacet
  facet normal 0 0 1
    outer loop
      vertex 2.28647 2.61832 24.4
      vertex 1 1 24.4
      vertex 3.96353 2.07342 24.4
    endloop
  endfacet
  facet normal 0 0 1
    outer loop
      vertex 2.28647 4.38168 24.4
      vertex 1 1 24.4
      vertex 2.28647 2.61832 24.4
    endloop
  endfacet
  facet normal 1 -0 0
    outer loop
      vertex 58.4 1 24.4
      vertex 58.4 58.4 23
      vertex 58.4 58.4 24.4
    endloop
  endfacet
  facet normal 1 0 0
    outer loop
      vertex 58.4 58.4 23
      vertex 58.4 1 24.4
      vertex 58.4 1 23
    endloop
  endfacet
  facet normal 0 1 -0
    outer loop
      vertex 58.4 58.4 23
      vertex 1 58.4 24.4
      vertex 58.4 58.4 24.4
    endloop
  endfacet
  facet normal 0 1 0
    outer loop
      vertex 1 58.4 24.4
      vertex 58.4 58.4 23
      vertex 1 58.4 23
    endloop
  endfacet
  facet normal 0 0 -1
    outer loop
      vertex 3.96353 55.0734 23
      vertex 38.5 28.5 23
      vertex 3.96353 4.92658 23
    endloop
  endfacet
  facet normal 0 0 -1
    outer loop
      vertex 38.5 28.5 23
      vertex 3.96353 55.0734 23
      vertex 5 56.5 23
    endloop
  endfacet
  facet normal 0 0 -1
    outer loop
      vertex 2.28647 4.38168 23
      vertex 3.96353 55.0734 23
      vertex 3.96353 4.92658 23
    endloop
  endfacet
  facet normal -0 0 -1
    outer loop
      vertex 3.96353 55.0734 23
      vertex 2.28647 4.38168 23
      vertex 2.28647 55.6183 23
    endloop
  endfacet
  facet normal 0 0 -1
    outer loop
      vertex 53.5 13.5 23
      vertex 58 3.5 23
      vertex 56.9635 4.92658 23
    endloop
  endfacet
  facet normal 0 0 -1
    outer loop
      vertex 58 3.5 23
      vertex 53.5 28.5 23
      vertex 58 56.5 23
    endloop
  endfacet
  facet normal 0 0 -1
    outer loop
      vertex 53.5 13.5 23
      vertex 56.9635 4.92658 23
      vertex 55.2865 4.38168 23
    endloop
  endfacet
  facet normal 0 0 -1
    outer loop
      vertex 58 56.5 23
      vertex 53.5 28.5 23
      vertex 56.9635 55.0734 23
    endloop
  endfacet
  facet normal 0 0 -1
    outer loop
      vertex 58.4 1 23
      vertex 58 3.5 23
      vertex 58.4 58.4 23
    endloop
  endfacet
  facet normal 0 0 -1
    outer loop
      vertex 58.4 1 23
      vertex 56.9635 2.07342 23
      vertex 58 3.5 23
    endloop
  endfacet
  facet normal 0 0 -1
    outer loop
      vertex 58.4 1 23
      vertex 55.2865 2.61832 23
      vertex 56.9635 2.07342 23
    endloop
  endfacet
  facet normal 0 0 -1
    outer loop
      vertex 38.5 13.5 23
      vertex 55.2865 4.38168 23
      vertex 55.2865 2.61832 23
    endloop
  endfacet
  facet normal -0 0 -1
    outer loop
      vertex 56.9635 55.0734 23
      vertex 53.5 28.5 23
      vertex 55.2865 55.6183 23
    endloop
  endfacet
  facet normal 0 0 -1
    outer loop
      vertex 58 3.5 23
      vertex 53.5 13.5 23
      vertex 53.5 28.5 23
    endloop
  endfacet
  facet normal 0 0 -1
    outer loop
      vertex 55.2865 4.38168 23
      vertex 38.5 13.5 23
      vertex 53.5 13.5 23
    endloop
  endfacet
  facet normal 0 0 -1
    outer loop
      vertex 3.96353 4.92658 23
      vertex 38.5 13.5 23
      vertex 5 3.5 23
    endloop
  endfacet
  facet normal 0 0 -1
    outer loop
      vertex 3.96353 2.07342 23
      vertex 38.5 13.5 23
      vertex 55.2865 2.61832 23
    endloop
  endfacet
  facet normal 0 0 -1
    outer loop
      vertex 3.96353 2.07342 23
      vertex 55.2865 2.61832 23
      vertex 58.4 1 23
    endloop
  endfacet
  facet normal 0 0 -1
    outer loop
      vertex 38.5 13.5 23
      vertex 3.96353 2.07342 23
      vertex 5 3.5 23
    endloop
  endfacet
  facet normal 0 0 -1
    outer loop
      vertex 1 1 23
      vertex 2.28647 4.38168 23
      vertex 2.28647 2.61832 23
    endloop
  endfacet
  facet normal 0 0 -1
    outer loop
      vertex 1 58.4 23
      vertex 2.28647 4.38168 23
      vertex 1 1 23
    endloop
  endfacet
  facet normal 0 0 -1
    outer loop
      vertex 2.28647 4.38168 23
      vertex 1 58.4 23
      vertex 2.28647 55.6183 23
    endloop
  endfacet
  facet normal -0 0 -1
    outer loop
      vertex 3.96353 2.07342 23
      vertex 1 1 23
      vertex 2.28647 2.61832 23
    endloop
  endfacet
  facet normal 0 0 -1
    outer loop
      vertex 1 1 23
      vertex 3.96353 2.07342 23
      vertex 58.4 1 23
    endloop
  endfacet
  facet normal 0 0 -1
    outer loop
      vertex 58 56.5 23
      vertex 58.4 58.4 23
      vertex 58 3.5 23
    endloop
  endfacet
  facet normal 0 0 -1
    outer loop
      vertex 56.9635 57.9266 23
      vertex 58.4 58.4 23
      vertex 58 56.5 23
    endloop
  endfacet
  facet normal 0 0 -1
    outer loop
      vertex 3.96353 57.9266 23
      vertex 56.9635 57.9266 23
      vertex 55.2865 57.3817 23
    endloop
  endfacet
  facet normal 0 0 -1
    outer loop
      vertex 38.5 28.5 23
      vertex 55.2865 55.6183 23
      vertex 53.5 28.5 23
    endloop
  endfacet
  facet normal 0 0 -1
    outer loop
      vertex 5 56.5 23
      vertex 55.2865 55.6183 23
      vertex 38.5 28.5 23
    endloop
  endfacet
  facet normal -0 0 -1
    outer loop
      vertex 38.5 13.5 23
      vertex 3.96353 4.92658 23
      vertex 38.5 28.5 23
    endloop
  endfacet
  facet normal 0 0 -1
    outer loop
      vertex 55.2865 55.6183 23
      vertex 5 56.5 23
      vertex 55.2865 57.3817 23
    endloop
  endfacet
  facet normal 0 0 -1
    outer loop
      vertex 3.96353 57.9266 23
      vertex 55.2865 57.3817 23
      vertex 5 56.5 23
    endloop
  endfacet
  facet normal 0 0 -1
    outer loop
      vertex 56.9635 57.9266 23
      vertex 3.96353 57.9266 23
      vertex 58.4 58.4 23
    endloop
  endfacet
  facet normal 0 0 -1
    outer loop
      vertex 3.96353 57.9266 23
      vertex 1 58.4 23
      vertex 58.4 58.4 23
    endloop
  endfacet
  facet normal 0 0 -1
    outer loop
      vertex 2.28647 57.3817 23
      vertex 1 58.4 23
      vertex 3.96353 57.9266 23
    endloop
  endfacet
  facet normal 0 0 -1
    outer loop
      vertex 2.28647 55.6183 23
      vertex 1 58.4 23
      vertex 2.28647 57.3817 23
    endloop
  endfacet
  facet normal 0 -1 0
    outer loop
      vertex 1 1 23
      vertex 58.4 1 24.4
      vertex 1 1 24.4
    endloop
  endfacet
  facet normal 0 -1 -0
    outer loop
      vertex 58.4 1 24.4
      vertex 1 1 23
      vertex 58.4 1 23
    endloop
  endfacet
  facet normal -0.809017 -0.587785 0
    outer loop
      vertex 5 3.5 23
      vertex 3.96353 4.92658 24.4
      vertex 3.96353 4.92658 23
    endloop
  endfacet
  facet normal -0.809017 -0.587785 0
    outer loop
      vertex 3.96353 4.92658 24.4
      vertex 5 3.5 23
      vertex 5 3.5 24.4
    endloop
  endfacet
  facet normal 1 -0 0
    outer loop
      vertex 2.28647 2.61832 24.4
      vertex 2.28647 4.38168 23
      vertex 2.28647 4.38168 24.4
    endloop
  endfacet
  facet normal 1 0 0
    outer loop
      vertex 2.28647 4.38168 23
      vertex 2.28647 2.61832 24.4
      vertex 2.28647 2.61832 23
    endloop
  endfacet
  facet normal 0.309017 -0.951057 0
    outer loop
      vertex 2.28647 4.38168 23
      vertex 3.96353 4.92658 24.4
      vertex 2.28647 4.38168 24.4
    endloop
  endfacet
  facet normal 0.309017 -0.951057 0
    outer loop
      vertex 3.96353 4.92658 24.4
      vertex 2.28647 4.38168 23
      vertex 3.96353 4.92658 23
    endloop
  endfacet
  facet normal 0.309017 0.951057 -0
    outer loop
      vertex 3.96353 2.07342 23
      vertex 2.28647 2.61832 24.4
      vertex 3.96353 2.07342 24.4
    endloop
  endfacet
  facet normal 0.309017 0.951057 0
    outer loop
      vertex 2.28647 2.61832 24.4
      vertex 3.96353 2.07342 23
      vertex 2.28647 2.61832 23
    endloop
  endfacet
  facet normal -0.809017 0.587785 0
    outer loop
      vertex 3.96353 2.07342 23
      vertex 5 3.5 24.4
      vertex 5 3.5 23
    endloop
  endfacet
  facet normal -0.809017 0.587785 0
    outer loop
      vertex 5 3.5 24.4
      vertex 3.96353 2.07342 23
      vertex 3.96353 2.07342 24.4
    endloop
  endfacet
  facet normal -0.809017 -0.587786 0
    outer loop
      vertex 58 3.5 23
      vertex 56.9635 4.92658 24.4
      vertex 56.9635 4.92658 23
    endloop
  endfacet
  facet normal -0.809017 -0.587786 0
    outer loop
      vertex 56.9635 4.92658 24.4
      vertex 58 3.5 23
      vertex 58 3.5 24.4
    endloop
  endfacet
  facet normal 1 -0 0
    outer loop
      vertex 55.2865 2.61832 24.4
      vertex 55.2865 4.38168 23
      vertex 55.2865 4.38168 24.4
    endloop
  endfacet
  facet normal 1 0 0
    outer loop
      vertex 55.2865 4.38168 23
      vertex 55.2865 2.61832 24.4
      vertex 55.2865 2.61832 23
    endloop
  endfacet
  facet normal 0.309017 -0.951056 0
    outer loop
      vertex 55.2865 4.38168 23
      vertex 56.9635 4.92658 24.4
      vertex 55.2865 4.38168 24.4
    endloop
  endfacet
  facet normal 0.309017 -0.951056 0
    outer loop
      vertex 56.9635 4.92658 24.4
      vertex 55.2865 4.38168 23
      vertex 56.9635 4.92658 23
    endloop
  endfacet
  facet normal 0.309018 0.951056 -0
    outer loop
      vertex 56.9635 2.07342 23
      vertex 55.2865 2.61832 24.4
      vertex 56.9635 2.07342 24.4
    endloop
  endfacet
  facet normal 0.309018 0.951056 0
    outer loop
      vertex 55.2865 2.61832 24.4
      vertex 56.9635 2.07342 23
      vertex 55.2865 2.61832 23
    endloop
  endfacet
  facet normal -0.809017 0.587786 0
    outer loop
      vertex 56.9635 2.07342 23
      vertex 58 3.5 24.4
      vertex 58 3.5 23
    endloop
  endfacet
  facet normal -0.809017 0.587786 0
    outer loop
      vertex 58 3.5 24.4
      vertex 56.9635 2.07342 23
      vertex 56.9635 2.07342 24.4
    endloop
  endfacet
  facet normal -0.809017 -0.587785 0
    outer loop
      vertex 5 56.5 23
      vertex 3.96353 57.9266 24.4
      vertex 3.96353 57.9266 23
    endloop
  endfacet
  facet normal -0.809017 -0.587785 0
    outer loop
      vertex 3.96353 57.9266 24.4
      vertex 5 56.5 23
      vertex 5 56.5 24.4
    endloop
  endfacet
  facet normal 1 -0 0
    outer loop
      vertex 2.28647 55.6183 24.4
      vertex 2.28647 57.3817 23
      vertex 2.28647 57.3817 24.4
    endloop
  endfacet
  facet normal 1 0 0
    outer loop
      vertex 2.28647 57.3817 23
      vertex 2.28647 55.6183 24.4
      vertex 2.28647 55.6183 23
    endloop
  endfacet
  facet normal 0.309017 -0.951057 0
    outer loop
      vertex 2.28647 57.3817 23
      vertex 3.96353 57.9266 24.4
      vertex 2.28647 57.3817 24.4
    endloop
  endfacet
  facet normal 0.309017 -0.951057 0
    outer loop
      vertex 3.96353 57.9266 24.4
      vertex 2.28647 57.3817 23
      vertex 3.96353 57.9266 23
    endloop
  endfacet
  facet normal 0.309017 0.951057 -0
    outer loop
      vertex 3.96353 55.0734 23
      vertex 2.28647 55.6183 24.4
      vertex 3.96353 55.0734 24.4
    endloop
  endfacet
  facet normal 0.309017 0.951057 0
    outer loop
      vertex 2.28647 55.6183 24.4
      vertex 3.96353 55.0734 23
      vertex 2.28647 55.6183 23
    endloop
  endfacet
  facet normal -0.809017 0.587785 0
    outer loop
      vertex 3.96353 55.0734 23
      vertex 5 56.5 24.4
      vertex 5 56.5 23
    endloop
  endfacet
  facet normal -0.809017 0.587785 0
    outer loop
      vertex 5 56.5 24.4
      vertex 3.96353 55.0734 23
      vertex 3.96353 55.0734 24.4
    endloop
  endfacet
  facet normal -0.809017 -0.587785 0
    outer loop
      vertex 58 56.5 23
      vertex 56.9635 57.9266 24.4
      vertex 56.9635 57.9266 23
    endloop
  endfacet
  facet normal -0.809017 -0.587785 0
    outer loop
      vertex 56.9635 57.9266 24.4
      vertex 58 56.5 23
      vertex 58 56.5 24.4
    endloop
  endfacet
  facet normal 1 -0 0
    outer loop
      vertex 55.2865 55.6183 24.4
      vertex 55.2865 57.3817 23
      vertex 55.2865 57.3817 24.4
    endloop
  endfacet
  facet normal 1 0 0
    outer loop
      vertex 55.2865 57.3817 23
      vertex 55.2865 55.6183 24.4
      vertex 55.2865 55.6183 23
    endloop
  endfacet
  facet normal 0.309017 -0.951056 0
    outer loop
      vertex 55.2865 57.3817 23
      vertex 56.9635 57.9266 24.4
      vertex 55.2865 57.3817 24.4
    endloop
  endfacet
  facet normal 0.309017 -0.951056 0
    outer loop
      vertex 56.9635 57.9266 24.4
      vertex 55.2865 57.3817 23
      vertex 56.9635 57.9266 23
    endloop
  endfacet
  facet normal 0.309017 0.951056 -0
    outer loop
      vertex 56.9635 55.0734 23
      vertex 55.2865 55.6183 24.4
      vertex 56.9635 55.0734 24.4
    endloop
  endfacet
  facet normal 0.309017 0.951056 0
    outer loop
      vertex 55.2865 55.6183 24.4
      vertex 56.9635 55.0734 23
      vertex 55.2865 55.6183 23
    endloop
  endfacet
  facet normal -0.809017 0.587785 0
    outer loop
      vertex 56.9635 55.0734 23
      vertex 58 56.5 24.4
      vertex 58 56.5 23
    endloop
  endfacet
  facet normal -0.809017 0.587785 0
    outer loop
      vertex 58 56.5 24.4
      vertex 56.9635 55.0734 23
      vertex 56.9635 55.0734 24.4
    endloop
  endfacet
  facet normal -0.970942 -0.239316 0
    outer loop
      vertex 50 21 24
      vertex 49.5418 22.8589 24.4
      vertex 49.5418 22.8589 24
    endloop
  endfacet
  facet normal -0.970942 -0.239316 0
    outer loop
      vertex 49.5418 22.8589 24.4
      vertex 50 21 24
      vertex 50 21 24.4
    endloop
  endfacet
  facet normal 1 -0 0
    outer loop
      vertex 42.1162 20.0427 24.4
      vertex 42.1162 21.9573 24
      vertex 42.1162 21.9573 24.4
    endloop
  endfacet
  facet normal 1 0 0
    outer loop
      vertex 42.1162 21.9573 24
      vertex 42.1162 20.0427 24.4
      vertex 42.1162 20.0427 24
    endloop
  endfacet
  facet normal 0.120536 -0.992709 0
    outer loop
      vertex 44.5816 24.7401 24
      vertex 46.4821 24.9708 24.4
      vertex 44.5816 24.7401 24.4
    endloop
  endfacet
  facet normal 0.120536 -0.992709 0
    outer loop
      vertex 46.4821 24.9708 24.4
      vertex 44.5816 24.7401 24
      vertex 46.4821 24.9708 24
    endloop
  endfacet
  facet normal 0.568065 -0.822984 0
    outer loop
      vertex 43.006 23.6525 24
      vertex 44.5816 24.7401 24.4
      vertex 43.006 23.6525 24.4
    endloop
  endfacet
  facet normal 0.568065 -0.822984 0
    outer loop
      vertex 44.5816 24.7401 24.4
      vertex 43.006 23.6525 24
      vertex 44.5816 24.7401 24
    endloop
  endfacet
  facet normal -0.354605 0.935016 0
    outer loop
      vertex 48.2723 17.7081 24
      vertex 46.4821 17.0292 24.4
      vertex 48.2723 17.7081 24.4
    endloop
  endfacet
  facet normal -0.354605 0.935016 0
    outer loop
      vertex 46.4821 17.0292 24.4
      vertex 48.2723 17.7081 24
      vertex 46.4821 17.0292 24
    endloop
  endfacet
  facet normal -0.354605 -0.935016 0
    outer loop
      vertex 46.4821 24.9708 24
      vertex 48.2723 24.2919 24.4
      vertex 46.4821 24.9708 24.4
    endloop
  endfacet
  facet normal -0.354605 -0.935016 -0
    outer loop
      vertex 48.2723 24.2919 24.4
      vertex 46.4821 24.9708 24
      vertex 48.2723 24.2919 24
    endloop
  endfacet
  facet normal -0.748511 -0.663123 0
    outer loop
      vertex 49.5418 22.8589 24
      vertex 48.2723 24.2919 24.4
      vertex 48.2723 24.2919 24
    endloop
  endfacet
  facet normal -0.748511 -0.663123 0
    outer loop
      vertex 48.2723 24.2919 24.4
      vertex 49.5418 22.8589 24
      vertex 49.5418 22.8589 24.4
    endloop
  endfacet
  facet normal 0.885456 -0.464723 0
    outer loop
      vertex 42.1162 21.9573 24.4
      vertex 43.006 23.6525 24
      vertex 43.006 23.6525 24.4
    endloop
  endfacet
  facet normal 0.885456 -0.464723 0
    outer loop
      vertex 43.006 23.6525 24
      vertex 42.1162 21.9573 24.4
      vertex 42.1162 21.9573 24
    endloop
  endfacet
  facet normal -0.748511 0.663123 0
    outer loop
      vertex 48.2723 17.7081 24
      vertex 49.5418 19.1411 24.4
      vertex 49.5418 19.1411 24
    endloop
  endfacet
  facet normal -0.748511 0.663123 0
    outer loop
      vertex 49.5418 19.1411 24.4
      vertex 48.2723 17.7081 24
      vertex 48.2723 17.7081 24.4
    endloop
  endfacet
  facet normal 0.120536 0.992709 -0
    outer loop
      vertex 46.4821 17.0292 24
      vertex 44.5816 17.2599 24.4
      vertex 46.4821 17.0292 24.4
    endloop
  endfacet
  facet normal 0.120536 0.992709 0
    outer loop
      vertex 44.5816 17.2599 24.4
      vertex 46.4821 17.0292 24
      vertex 44.5816 17.2599 24
    endloop
  endfacet
  facet normal 0.885456 0.464723 0
    outer loop
      vertex 43.006 18.3475 24.4
      vertex 42.1162 20.0427 24
      vertex 42.1162 20.0427 24.4
    endloop
  endfacet
  facet normal 0.885456 0.464723 0
    outer loop
      vertex 42.1162 20.0427 24
      vertex 43.006 18.3475 24.4
      vertex 43.006 18.3475 24
    endloop
  endfacet
  facet normal -0.970942 0.239316 0
    outer loop
      vertex 49.5418 19.1411 24
      vertex 50 21 24.4
      vertex 50 21 24
    endloop
  endfacet
  facet normal -0.970942 0.239316 0
    outer loop
      vertex 50 21 24.4
      vertex 49.5418 19.1411 24
      vertex 49.5418 19.1411 24.4
    endloop
  endfacet
  facet normal 0.568065 0.822984 -0
    outer loop
      vertex 44.5816 17.2599 24
      vertex 43.006 18.3475 24.4
      vertex 44.5816 17.2599 24.4
    endloop
  endfacet
  facet normal 0.568065 0.822984 0
    outer loop
      vertex 43.006 18.3475 24.4
      vertex 44.5816 17.2599 24
      vertex 43.006 18.3475 24
    endloop
  endfacet
  facet normal 1 -0 0
    outer loop
      vertex 38.5 13.5 24
      vertex 38.5 28.5 23
      vertex 38.5 28.5 24
    endloop
  endfacet
  facet normal 1 0 0
    outer loop
      vertex 38.5 28.5 23
      vertex 38.5 13.5 24
      vertex 38.5 13.5 23
    endloop
  endfacet
  facet normal 0 0 -1
    outer loop
      vertex 53.5 13.5 24
      vertex 50 21 24
      vertex 53.5 28.5 24
    endloop
  endfacet
  facet normal 0 0 -1
    outer loop
      vertex 53.5 13.5 24
      vertex 49.5418 19.1411 24
      vertex 50 21 24
    endloop
  endfacet
  facet normal 0 0 -1
    outer loop
      vertex 53.5 13.5 24
      vertex 48.2723 17.7081 24
      vertex 49.5418 19.1411 24
    endloop
  endfacet
  facet normal 0 0 -1
    outer loop
      vertex 53.5 13.5 24
      vertex 46.4821 17.0292 24
      vertex 48.2723 17.7081 24
    endloop
  endfacet
  facet normal 0 0 -1
    outer loop
      vertex 38.5 13.5 24
      vertex 46.4821 17.0292 24
      vertex 53.5 13.5 24
    endloop
  endfacet
  facet normal -0 0 -1
    outer loop
      vertex 42.1162 20.0427 24
      vertex 38.5 13.5 24
      vertex 42.1162 21.9573 24
    endloop
  endfacet
  facet normal -0 0 -1
    outer loop
      vertex 43.006 18.3475 24
      vertex 38.5 13.5 24
      vertex 42.1162 20.0427 24
    endloop
  endfacet
  facet normal -0 0 -1
    outer loop
      vertex 44.5816 17.2599 24
      vertex 38.5 13.5 24
      vertex 43.006 18.3475 24
    endloop
  endfacet
  facet normal -0 0 -1
    outer loop
      vertex 46.4821 17.0292 24
      vertex 38.5 13.5 24
      vertex 44.5816 17.2599 24
    endloop
  endfacet
  facet normal 0 0 -1
    outer loop
      vertex 49.5418 22.8589 24
      vertex 53.5 28.5 24
      vertex 50 21 24
    endloop
  endfacet
  facet normal 0 0 -1
    outer loop
      vertex 48.2723 24.2919 24
      vertex 53.5 28.5 24
      vertex 49.5418 22.8589 24
    endloop
  endfacet
  facet normal 0 0 -1
    outer loop
      vertex 46.4821 24.9708 24
      vertex 53.5 28.5 24
      vertex 48.2723 24.2919 24
    endloop
  endfacet
  facet normal 0 0 -1
    outer loop
      vertex 38.5 28.5 24
      vertex 46.4821 24.9708 24
      vertex 44.5816 24.7401 24
    endloop
  endfacet
  facet normal 0 0 -1
    outer loop
      vertex 46.4821 24.9708 24
      vertex 38.5 28.5 24
      vertex 53.5 28.5 24
    endloop
  endfacet
  facet normal 0 0 -1
    outer loop
      vertex 43.006 23.6525 24
      vertex 38.5 28.5 24
      vertex 44.5816 24.7401 24
    endloop
  endfacet
  facet normal 0 0 -1
    outer loop
      vertex 42.1162 21.9573 24
      vertex 38.5 28.5 24
      vertex 43.006 23.6525 24
    endloop
  endfacet
  facet normal 0 0 -1
    outer loop
      vertex 38.5 28.5 24
      vertex 42.1162 21.9573 24
      vertex 38.5 13.5 24
    endloop
  endfacet
  facet normal -1 0 0
    outer loop
      vertex 53.5 13.5 23
      vertex 53.5 28.5 24
      vertex 53.5 28.5 23
    endloop
  endfacet
  facet normal -1 -0 0
    outer loop
      vertex 53.5 28.5 24
      vertex 53.5 13.5 23
      vertex 53.5 13.5 24
    endloop
  endfacet
  facet normal 0 -1 0
    outer loop
      vertex 38.5 28.5 23
      vertex 53.5 28.5 24
      vertex 38.5 28.5 24
    endloop
  endfacet
  facet normal 0 -1 -0
    outer loop
      vertex 53.5 28.5 24
      vertex 38.5 28.5 23
      vertex 53.5 28.5 23
    endloop
  endfacet
  facet normal 0 1 -0
    outer loop
      vertex 53.5 13.5 23
      vertex 38.5 13.5 24
      vertex 53.5 13.5 24
    endloop
  endfacet
  facet normal 0 1 0
    outer loop
      vertex 38.5 13.5 24
      vertex 53.5 13.5 23
      vertex 38.5 13.5 23
    endloop
  endfacet
endsolid OpenSCAD_Model
